# xmcd
#
# Track frame offsets:
#	180
#	22168
#	42408
#	54494
#	75337
#	89946
#	104084
#	123966
#	145105
#	163561
#	182489
#	194562
#	208491
#	222987
#
# Disc length: 3221 seconds
#
# Revision: 0
# Processed by: cddbd v1.4PL0 Copyright (c) Steve Scherf et al.
# Submitted via: dBpowerAMP V4.0
#
DISCID=d50c930e
DTITLE=Roland - Little Sweet Taste
DYEAR=1900
DGENRE=Blues
TTITLE0=Little Sweet Taste
TTITLE1=Mr. Jelly Roll Baker
TTITLE2=Mind on Vacation
TTITLE3=Me and Blind Willie
TTITLE4=I'd like to know
TTITLE5=Liza Jane
TTITLE6=I'm Telling You Now
TTITLE7=Fine Sugar Mama
TTITLE8=Black Mountain
TTITLE9=New Pony
TTITLE10=Les Femmes
TTITLE11=Ghost Dance
TTITLE12=Way Beyond the Moon
TTITLE13=The Blues before you were Born
EXTD=
EXTT0=
EXTT1=
EXTT2=
EXTT3=
EXTT4=
EXTT5=
EXTT6=
EXTT7=
EXTT8=
EXTT9=
EXTT10=
EXTT11=
EXTT12=
EXTT13=
PLAYORDER=
